<svg width="47" height="47" viewBox="0 0 47 47" fill="none" xmlns="http://www.w3.org/2000/svg">
<path d="M40.0227 21.7559H13.1675L29.2411 7.80273C29.4982 7.57783 29.3421 7.16016 29.0025 7.16016H24.9405C24.7615 7.16016 24.5916 7.22441 24.4585 7.33916L7.11351 22.3893C6.95465 22.527 6.82725 22.6972 6.73993 22.8884C6.65261 23.0797 6.60742 23.2875 6.60742 23.4977C6.60742 23.7079 6.65261 23.9157 6.73993 24.107C6.82725 24.2982 6.95465 24.4684 7.11351 24.6062L24.5595 39.748C24.6284 39.8077 24.711 39.8398 24.7982 39.8398H28.9979C29.3375 39.8398 29.4936 39.4176 29.2366 39.1973L13.1675 25.2441H40.0227C40.2246 25.2441 40.3899 25.0789 40.3899 24.877V22.123C40.3899 21.9211 40.2246 21.7559 40.0227 21.7559Z" fill="black"/>
</svg>
