<svg width="259" height="259" viewBox="0 0 259 259" fill="none" xmlns="http://www.w3.org/2000/svg">
<path d="M194.25 194.25C230.01 158.49 230.01 100.51 194.25 64.75C158.49 28.9896 100.51 28.9896 64.75 64.75C28.9896 100.51 28.9896 158.49 64.75 194.25C100.51 230.01 158.49 230.01 194.25 194.25Z" fill="#3498DB"/>
<path d="M107.325 144.061C107.325 144.061 112.905 158.261 111.378 168.409C109.85 178.556 104.27 184.153 92.0794 190.232C79.8893 196.311 60.6232 204.947 58.5808 211.042C56.5384 217.137 58.5808 245.634 58.5808 245.634H207.773C207.773 245.634 204.219 216.124 196.612 205.96C189.005 195.796 158.562 187.707 149.974 182.111C141.387 176.514 144.908 144.559 144.908 144.559C144.908 144.559 122.04 151.651 107.325 144.061Z" fill="white" stroke="#263238" stroke-linecap="round" stroke-linejoin="round"/>
<path d="M89.7962 191.422C87.0301 192.773 83.9907 194.252 80.9512 195.764C86.2421 211.846 81.3532 232.286 76.8342 245.618H182.492C180.825 242.085 179.693 238.323 179.131 234.457C177.41 222.38 178.552 204.143 179.356 194.735C175.786 193.127 172.039 191.599 168.405 190.152C163.114 202.679 149.878 227.011 127.669 224.004C105.653 221.061 94.2188 201.505 89.7962 191.422Z" fill="#263238" stroke="#263238" stroke-linecap="round" stroke-linejoin="round"/>
<path d="M81.9479 152.182C81.9479 152.182 84.9713 159.789 96.2286 161.301C107.486 162.813 101.922 146.473 135.179 145.331C158.594 144.527 135.308 163.826 140.39 164.855C145.471 165.884 158.08 164.34 165.252 147.599C172.425 130.858 173.872 88.2247 159.157 74.5229C144.442 60.8211 101.262 61.3197 94.7169 73.5097C88.1716 85.6998 92.6745 106.992 86.676 118.668C80.6774 130.343 77.8792 146.087 81.9479 152.182Z" fill="#263238" stroke="#263238" stroke-linecap="round" stroke-linejoin="round"/>
<path d="M96.2286 113.055C96.2286 113.055 92.176 102.393 90.6482 110.016C89.1204 117.638 90.6482 125.229 94.2023 128.285C97.7564 131.34 99.7827 130.809 99.7827 130.809L96.2286 113.055Z" fill="white" stroke="#263238" stroke-linecap="round" stroke-linejoin="round"/>
<path d="M112.198 58.7466C112.198 58.7466 103.626 60.8855 97.9009 76.6136C92.1757 92.3417 96.6465 133.672 100.217 137.966C103.787 142.26 115.671 160.095 127.106 160.802C134.391 161.253 152.66 144.511 155.522 135.94C158.385 127.368 159.382 88.7715 157.227 79.4761C155.072 70.1808 137.221 48.7276 112.198 58.7466Z" fill="white" stroke="#263238" stroke-linecap="round" stroke-linejoin="round"/>
<path d="M117.424 109.549C117.424 110.014 117.286 110.469 117.028 110.855C116.769 111.242 116.401 111.543 115.971 111.72C115.541 111.897 115.068 111.943 114.612 111.851C114.157 111.759 113.738 111.534 113.411 111.204C113.083 110.874 112.86 110.454 112.772 109.997C112.683 109.541 112.732 109.068 112.912 108.639C113.092 108.211 113.396 107.845 113.784 107.589C114.172 107.333 114.627 107.198 115.093 107.201C115.4 107.201 115.705 107.262 115.989 107.38C116.273 107.498 116.53 107.672 116.747 107.89C116.964 108.108 117.135 108.367 117.252 108.652C117.368 108.937 117.427 109.242 117.424 109.549Z" fill="#263238"/>
<path d="M140.759 109.549C140.759 110.014 140.622 110.468 140.364 110.854C140.106 111.24 139.739 111.541 139.31 111.718C138.881 111.896 138.409 111.943 137.953 111.852C137.498 111.761 137.08 111.538 136.751 111.209C136.423 110.881 136.199 110.463 136.109 110.007C136.018 109.552 136.064 109.08 136.242 108.651C136.42 108.222 136.721 107.855 137.107 107.597C137.493 107.339 137.947 107.201 138.411 107.201C138.72 107.199 139.027 107.258 139.312 107.376C139.598 107.493 139.858 107.666 140.076 107.884C140.295 108.103 140.468 108.362 140.585 108.648C140.702 108.934 140.762 109.24 140.759 109.549Z" fill="#263238"/>
<path d="M118.004 133.656C118.004 133.656 125.61 137.934 136.514 133.656" stroke="#263238" stroke-linecap="round" stroke-linejoin="round"/>
<path d="M131.77 118.008C131.77 118.008 135.099 122.27 131.77 124.65C130.315 125.645 128.611 126.215 126.851 126.298C125.09 126.38 123.341 125.971 121.799 125.117C118.953 123.701 122.282 117.526 122.282 117.526" stroke="#263238" stroke-linecap="round" stroke-linejoin="round"/>
<path d="M119.177 98.7903C117.741 97.2358 115.877 96.1395 113.82 95.6389C111.764 95.1383 109.605 95.2556 107.614 95.976C100.394 98.3883 100.04 104.387 100.04 104.387C100.04 104.387 104.43 98.7903 108.354 98.726C112.278 98.6617 117.859 103.068 119.177 98.7903Z" fill="#263238"/>
<path d="M132.252 99.3211C133.598 97.6923 135.396 96.4979 137.419 95.8884C139.442 95.2789 141.6 95.2814 143.622 95.8956C150.972 97.9059 151.663 103.937 151.663 103.937C151.663 103.937 146.951 98.5974 143.043 98.7421C139.135 98.8869 133.796 103.535 132.252 99.3211Z" fill="#263238"/>
<path d="M119.499 71.4993C119.499 71.4993 106.811 68.0256 101.729 76.0666C96.6469 84.1075 99.2039 99.9161 91.5811 114.116C83.9583 128.317 88.5416 150.14 89.5548 153.195C90.5679 156.251 82.9612 160.304 78.9085 145.074C74.8559 129.844 86.5153 115.13 87.5284 99.4014C88.5416 83.6733 84.9714 66.4175 100.716 57.283C116.46 48.1484 119.499 53.7288 119.499 53.7288V71.4993Z" fill="#263238" stroke="#263238" stroke-linecap="round" stroke-linejoin="round"/>
<path d="M181.913 95.365C178.873 86.2304 179.372 69.4731 167.198 55.7713C159.559 47.1836 144.956 42.1982 132.975 41.9087C131.046 41.5095 129.068 41.3958 127.105 41.571C107.807 43.1792 95.6493 53.2465 99.2034 60.8693C102.757 68.4921 119.499 71.5316 119.499 71.5316L122.04 72.5447C121.954 71.6845 121.921 70.8198 121.943 69.9556C124.677 68.6851 129.341 67.8488 134.214 73.0433C142.697 82.5385 147.39 94.8224 147.401 107.555C146.902 126.853 156.535 133.945 156.535 142.067C156.535 150.188 142.335 160.336 139.279 162.877C135.902 165.691 152.145 167.074 153.158 167.01C169.513 165.997 180.385 155.318 187.204 141.07C195.228 124.312 187.155 111.077 181.913 95.365Z" fill="#263238" stroke="#263238" stroke-linecap="round" stroke-linejoin="round"/>
<path d="M163.483 156.026C162.727 157.265 161.752 158.355 160.604 159.242" stroke="white" stroke-linecap="round" stroke-linejoin="round"/>
<path d="M119.499 69.4571C119.499 69.4571 107.325 62.8635 117.473 57.7977C127.62 52.7319 146.42 68.444 150.955 83.1589C155.49 97.8738 151.968 114.631 158.578 126.291C161.698 131.839 165.751 141.038 165.445 148.805" stroke="white" stroke-linecap="round" stroke-linejoin="round"/>
<path d="M110.445 60.435C110.059 59.0359 110.831 57.0257 114.417 54.2435C123.552 47.1353 140.309 50.6894 148.929 59.8239C157.549 68.9584 160.604 80.1193 161.618 93.3064C162.631 106.494 164.657 114.663 171.813 122.704C178.97 130.745 182.974 139.445 175.866 149.593" stroke="white" stroke-linecap="round" stroke-linejoin="round"/>
<path d="M109.85 69.4569C109.85 69.4569 95.6492 63.3779 103.771 55.7551" stroke="white" stroke-linecap="round" stroke-linejoin="round"/>
<path d="M92.0635 151.089C93.1628 152.703 94.547 154.104 96.1483 155.222" stroke="white" stroke-linecap="round" stroke-linejoin="round"/>
<path d="M89.0557 120.211C89.0557 120.211 85.4855 135.377 89.7311 146.586" stroke="white" stroke-linecap="round" stroke-linejoin="round"/>
<path d="M162.743 64.8093C166.741 71.5055 169.284 78.9687 170.205 86.7129C172.232 104.982 166.651 111.077 175.287 120.71C179.057 124.705 181.221 129.95 181.366 135.441" stroke="white" stroke-linecap="round" stroke-linejoin="round"/>
<path d="M156.536 56.2698C156.536 56.2698 157.276 57.0256 158.401 58.4569" stroke="white" stroke-linecap="round" stroke-linejoin="round"/>
</svg>
