<svg width="162" height="162" viewBox="0 0 162 162" fill="none" xmlns="http://www.w3.org/2000/svg">
<path fill-rule="evenodd" clip-rule="evenodd" d="M0 81C0 59.5175 8.5339 38.9148 23.7244 23.7244C38.9148 8.5339 59.5175 0 81 0C102.483 0 123.085 8.5339 138.276 23.7244C153.466 38.9148 162 59.5175 162 81C162 102.483 153.466 123.085 138.276 138.276C123.085 153.466 102.483 162 81 162C59.5175 162 38.9148 153.466 23.7244 138.276C8.5339 123.085 0 102.483 0 81H0ZM76.3776 115.668L123.012 57.3696L114.588 50.6304L74.8224 100.321L46.656 76.8528L39.744 85.1472L76.3776 115.679V115.668Z" fill="#2DD28C"/>
</svg>
